<svg xmlns="http://www.w3.org/2000/svg" viewBox="0 0 1080 176.57"><defs><style>.cls-1{fill:#eb4575;}.cls-2{fill:#26107d;}</style></defs><title>logo</title><g id="Layer_2" data-name="Layer 2"><g id="Layer_1-2" data-name="Layer 1"><rect class="cls-1" x="190.38" y="35.15" width="106.88" height="106.88" transform="translate(8.77 198.35) rotate(-45)"/><path class="cls-2" d="M574.3,176.57V0h134V35.07H612.75V70.76h59.6v34.43h-59.6v36.95h95.51v34.43Z"/><path class="cls-2" d="M358.91,0H534.85V176.57H500.42V39.09H464.73V176.57H430.3V39.09H393.35V176.57H358.92V0Z"/><path class="cls-2" d="M840,36.33V176.57H801.26V36.33H747.73V0H893.51V36.33Z"/><polygon class="cls-2" points="1080 176.56 1039.53 176.56 1023.44 137.11 1009.62 102.92 986.25 45.88 962.87 102.92 949.05 137.11 932.96 176.56 893.51 176.56 968.64 0 1004.85 0 1080 176.56"/><polygon class="cls-2" points="124.14 132.44 168.3 176.57 122.74 176.57 78.58 132.44 34.44 88.3 122.74 0 168.3 0 80 88.3 124.14 132.44"/><rect class="cls-2" y="0.01" width="34.43" height="176.56"/></g></g></svg>