<svg xmlns="http://www.w3.org/2000/svg" viewBox="0 0 1080 304.83"><defs><style>.cls-1{fill:#fff;}</style></defs><title>logo-kometa-white</title><g id="Layer_2" data-name="Layer 2"><g id="Layer_1-2" data-name="Layer 1"><rect class="cls-1" x="190.41" y="35.17" width="106.88" height="106.88" transform="translate(8.76 198.38) rotate(-45)"/><path class="cls-1" d="M574.3,176.57V0h134V35.07H612.75V70.76h59.6v34.43h-59.6v36.95h95.51v34.43Z"/><path class="cls-1" d="M358.91,0H534.85V176.57H500.42V39.09H464.73V176.57H430.3V39.09H393.35V176.57H358.92V0Z"/><path class="cls-1" d="M840,36.33V176.57H801.26V36.33H747.73V0H893.51V36.33Z"/><polygon class="cls-1" points="1080 176.56 1039.53 176.56 1023.44 137.11 1009.62 102.93 986.25 45.89 962.87 102.93 949.05 137.11 932.96 176.56 893.51 176.56 968.64 0 1004.85 0 1080 176.56"/><polygon class="cls-1" points="124.14 132.45 168.3 176.57 122.74 176.57 78.58 132.45 34.44 88.3 122.74 0 168.3 0 80 88.3 124.14 132.45"/><rect class="cls-1" y="0.01" width="34.43" height="176.56"/><path class="cls-1" d="M358.91,221h16.73l17,49.39,3,10.54h.92l3.21-10.54L417.36,221h16.73L404.18,303H387.91Z"/><path class="cls-1" d="M443.7,221h15.47V303H443.7Z"/><path class="cls-1" d="M475.67,221h29.91a30.88,30.88,0,0,1,11.23,2,25.93,25.93,0,0,1,8.65,5.39,23.39,23.39,0,0,1,5.56,8.19,27.08,27.08,0,0,1,2,10.37,21.64,21.64,0,0,1-1.37,7.73,23.32,23.32,0,0,1-3.78,6.53,27.69,27.69,0,0,1-5.62,5.16,28.41,28.41,0,0,1-6.76,3.5l-.11.8,22,31.51V303H519.57l-21.2-30.82h-7.22V303H475.68V221Zm29.79,37a12.05,12.05,0,0,0,8.65-3.21,10.75,10.75,0,0,0,3.38-8.14,12.57,12.57,0,0,0-.74-4.24,10.81,10.81,0,0,0-2.23-3.67,11,11,0,0,0-3.72-2.58,12.64,12.64,0,0,0-5.1-1H491.15v22.8h14.31Z"/><path class="cls-1" d="M564.13,303V235.62H541.21V221h61.3v14.67H579.59V303Z"/><path class="cls-1" d="M643.54,304.83a35.1,35.1,0,0,1-13.12-2.35,26.94,26.94,0,0,1-10-6.82A31.52,31.52,0,0,1,614,284.83a42.53,42.53,0,0,1-2.29-14.49V221h15.47v50.31a26.13,26.13,0,0,0,1,7.56,17.14,17.14,0,0,0,3.09,6,14.27,14.27,0,0,0,5.16,4,16.79,16.79,0,0,0,7.1,1.43,17.1,17.1,0,0,0,7.22-1.43,14.47,14.47,0,0,0,5.16-4,16.81,16.81,0,0,0,3.09-6,26.13,26.13,0,0,0,1-7.56V221H675.5v49.39a42.36,42.36,0,0,1-2.23,14,30.93,30.93,0,0,1-6.42,10.89,29.12,29.12,0,0,1-10.08,7.05A33.52,33.52,0,0,1,643.54,304.83Z"/><path class="cls-1" d="M714.13,221h17.64L762.59,303H745.52l-6.76-19.59H707.13L700.37,303H683.3Zm19.59,48.24-7.33-20.51-3-10h-.92l-3,10-7.33,20.51Z"/><path class="cls-1" d="M772.22,221h15.47v67.38h34.72V303H772.22Z"/><path class="cls-1" d="M858.62,221h15.47v67.38h34.72V303H858.62Z"/><path class="cls-1" d="M919.81,221h15.47V303H919.81Z"/><path class="cls-1" d="M943.19,221h16.73l17,49.39,3,10.54h.92L984,270.34,1001.64,221h16.73L988.46,303H972.19Z"/><path class="cls-1" d="M1043.45,235.62v19h32.89v14.67h-32.89v19H1080V303h-52V221h52v14.67Z"/></g></g></svg>